<svg xmlns="http://www.w3.org/2000/svg" version="1.1" xmlns:xlink="http://www.w3.org/1999/xlink" xmlns:svgjs="http://svgjs.dev/svgjs" width="400" height="400"><svg width="400" height="400" viewBox="0 0 400 400" fill="none" xmlns="http://www.w3.org/2000/svg">
<path d="M282.255 331.831C293.59 344.048 306.324 347.357 321.852 342.302C335.551 337.843 344.053 326.087 344.651 311.4C345.641 287.096 336.799 266.574 317.657 249.869C312.849 245.674 307.063 242.919 301.318 240.052C294.487 236.643 291.48 229.998 293.656 223.765C297.288 213.365 312.07 209.761 320.37 217.63C337.069 233.459 347.508 252.327 351.449 274.257C354.509 291.286 353.231 307.844 345.919 323.824C338.343 340.382 324.436 348.943 305.683 348.199C292.381 347.672 283.26 340.322 275.942 330.875C265.799 317.781 259.927 302.832 254.776 287.614C253.334 283.354 251.595 278.853 250 274C245.5 281.5 244.49 283.206 241.717 287.334C220.234 319.313 189.349 338.894 149.931 347.332C134.887 350.553 119.734 353.11 104.208 351.509C80.907 349.106 61.8741 340.121 50.7994 320.069C42.38 304.825 41.2481 288.652 45.1567 272.056C50.0947 251.088 61.5159 233.368 77.2412 217.938C101.857 193.784 132.345 178.917 166.833 170.916C183.325 167.091 200.072 164.208 216.707 160.911C222.862 159.691 223.468 158.978 221.879 153.473C220.526 148.788 220.137 143.814 217.622 139.289C214.288 140.147 212.052 141.999 209.589 143.433C194.482 152.226 179.054 160.415 161.184 163.366C140.321 166.812 120.409 164.775 102.502 153.362C82.4164 140.56 72.7516 118.218 78.7719 96.4313C85.8895 70.6734 102.681 52.6904 131.842 48.1835C160.717 43.7208 179.745 51.7532 194.862 74.421C201.51 84.3892 206.343 95.133 210.61 106.117C211.2 107.637 211.527 109.319 213.311 110.469C216.573 109.753 219.337 107.891 222.236 106.298C242.987 94.899 261.133 80.3337 279.474 66.0019C286.399 60.5905 293.601 55.4816 302.022 52.2358C315.353 47.097 328.594 46.9725 340.045 55.9371C350.16 63.8563 351.65 75.0525 350.053 86.4797C346.499 111.896 330.664 130.809 310.922 147.288C290.41 164.41 266.265 175.995 240.664 185.163C233.253 187.817 233.197 188.027 234.844 195.072C236.127 200.556 237.244 206.074 238.588 211.545C238.999 213.221 238.997 215.122 240.604 216.484C242.976 216.514 243.719 214.652 244.811 213.294C255.416 200.107 268.147 189.672 285.855 185.36C300.901 181.695 315.793 183.037 330.686 186.023C333.071 186.502 334.718 187.718 335.001 190.114C335.219 191.948 334.326 193.353 332.742 194.297C330.495 195.635 328.163 195.478 326.14 193.914C319.763 188.983 312.447 186.315 304.159 186.14C286.91 185.775 271.564 196.456 265.936 212.473C262.524 222.181 261.694 232.319 259.923 242.296C258.6 249.753 256.832 257.088 254.018 264.177C252.5 269.5 252.652 268 253.566 270.921C259.299 289.237 265.254 307.471 276.151 323.892C277.929 326.57 280.082 329.036 282.255 331.831ZM234.609 209.077C233.399 203.58 232.151 198.089 230.994 192.582C230.412 189.811 228.997 188.872 225.974 189.937C222.937 191.006 219.775 191.774 216.665 192.663C194.461 199.014 171.294 201.955 149.313 209.138C123.217 217.665 98.6693 228.665 78.8629 247.037C62.891 261.853 52.0515 278.975 52.4678 300.838C52.8029 318.436 64.9338 335.425 82.495 342.166C100.223 348.97 117.827 347.17 135.326 341.332C163.792 331.836 183.299 312.882 198.807 289.733C210.847 271.76 219.701 252.19 231.186 233.984C236.317 225.849 238.175 218.43 234.609 209.077ZM223.638 134.139C221.125 135.561 220.629 137.46 221.419 140.095C222.842 144.838 224.085 149.642 225.07 154.479C225.806 158.098 227.809 158.831 231.397 158.031C247.367 154.47 263.319 150.885 278.668 145.339C298.519 138.166 316.736 128.683 330.419 113.133C340.095 102.137 346.58 89.9232 345.528 75.1484C344.637 62.6484 334.712 53.7855 321.278 53.4127C312.138 53.1591 304.511 56.3375 297.709 61.5476C289.449 67.8733 282.693 75.5184 276 83.2108C260.2 101.371 244.255 119.409 223.638 134.139ZM116.287 121.203C126.504 131.599 139.633 134.626 153.929 132.537C172.851 129.773 189.975 122.043 206.949 114.173C209.08 113.186 209.562 111.972 208.736 109.874C203.603 96.8424 197.988 84.0495 189.344 72.5695C179.017 58.8523 165.275 51.0841 146.864 50.8481C131.612 50.6527 119.451 55.7327 111.201 67.9073C100.242 84.077 102.216 106.371 116.287 121.203Z" fill="black"></path>
</svg><style>@media (prefers-color-scheme: light) { :root { filter: none; } }
@media (prefers-color-scheme: dark) { :root { filter: none; } }
</style></svg>